#N canvas 0 90 1920 922 10;
#X obj 370 324 send toGUI;
#X obj 729 256 receive fromGUI;
#X obj 729 281 route list;
#X obj 71 31 r compass;
#X floatatom 66 83 5 0 0 0 - - -;
#X obj 133 87 moses -0.75;
#X obj 117 127 bng 15 250 50 0 empty empty empty 17 7 0 10 -262144
-1 -1;
#X obj 118 193 bng 15 250 50 0 empty empty empty 17 7 0 10 -262144
-1 -1;
#X obj 117 263 bng 15 250 50 0 empty empty empty 17 7 0 10 -262144
-1 -1;
#X obj 117 340 bng 15 250 50 0 empty empty empty 17 7 0 10 -262144
-1 -1;
#X obj 117 417 bng 15 250 50 0 empty empty empty 17 7 0 10 -262144
-1 -1;
#X obj 118 483 bng 15 250 50 0 empty empty empty 17 7 0 10 -262144
-1 -1;
#X obj 118 552 bng 15 250 50 0 empty empty empty 17 7 0 10 -262144
-1 -1;
#X obj 117 591 bng 15 250 50 0 empty empty empty 17 7 0 10 -262144
-1 -1;
#X obj 133 157 moses -0.5;
#X obj 133 226 moses -0.25;
#X obj 133 303 moses 0;
#X obj 133 380 moses 0.25;
#X obj 134 446 moses 0.5;
#X obj 134 512 moses 0.75;
#X obj 629 29 r fromSystem;
#X obj 629 51 route list;
#X obj 709 95 unpack 0 0;
#X obj 629 95 float;
#X obj 709 129 s tilt;
#X obj 629 73 route /compass /tilt;
#X text 616 7 get compass and tilt info;
#X text 59 11 choose string;
#X obj 370 90 r string;
#X msg 159 123 0, f 4;
#X msg 147 192 1, f 4;
#X msg 148 262 2, f 4;
#X msg 149 339 3, f 4;
#X msg 149 416 4, f 4;
#X msg 150 482 5, f 4;
#X msg 150 549 6, f 4;
#X msg 149 587 7, f 4;
#X obj 389 645 select 0 1 2 3 4 5 6 7;
#X obj 729 330 s pressed;
#X text 718 235 get button;
#X obj 729 306 route /playClapButton;
#X msg 370 181 list /catsPanel image harp1.png;
#X msg 386 204 list /catsPanel image harp2.png;
#X msg 403 226 list /catsPanel image harp3.png;
#X obj 24 956 soundfiler;
#X obj 24 898 loadbang;
#X msg 24 927 read -resize D3.wav D3;
#X obj 107 956 table D3;
#X obj 190 956 soundfiler;
#X obj 190 898 loadbang;
#X obj 352 956 soundfiler;
#X obj 352 898 loadbang;
#X obj 523 956 soundfiler;
#X obj 523 898 loadbang;
#X obj 25 1057 soundfiler;
#X obj 25 999 loadbang;
#X obj 191 1057 soundfiler;
#X obj 191 999 loadbang;
#X obj 353 1057 soundfiler;
#X obj 353 999 loadbang;
#X obj 523 1057 soundfiler;
#X obj 523 999 loadbang;
#X msg 190 927 read -resize F3.wav F3;
#X obj 273 956 table F3;
#X msg 351 926 read -resize C3.wav C3;
#X obj 435 956 table C3;
#X msg 523 927 read -resize Eb3.wav Eb3;
#X obj 606 956 table Eb3;
#X msg 25 1028 read -resize G3.wav G3;
#X obj 108 1057 table G3;
#X msg 191 1028 read -resize Ab3.wav Ab3;
#X obj 274 1056 table Ab3;
#X msg 353 1028 read -resize Bb3.wav Bb3;
#X obj 436 1057 table Bb3;
#X msg 523 1028 read -resize C4.wav C4;
#X obj 606 1057 table C4;
#X obj 370 124 select 0 1 2 3 4 5 6 7;
#X msg 418 248 list /catsPanel image harp4.png;
#X msg 433 270 list /catsPanel image harp5.png;
#X msg 451 292 list /catsPanel image harp6.png;
#X msg 466 315 list /catsPanel image harp7.png;
#X msg 482 338 list /catsPanel image harp8.png;
#X obj 378 733 tabplay~ Eb3;
#X obj 315 777 tabplay~ C3;
#X obj 350 754 tabplay~ D3;
#X obj 397 712 tabplay~ F3;
#X obj 470 729 tabplay~ G3;
#X obj 497 752 tabplay~ Ab3;
#X obj 500 774 tabplay~ Bb3;
#X obj 519 795 tabplay~ C4;
#X obj 414 847 *~ 0.3;
#X obj 475 819 *~ 5;
#X obj 268 416 change 9;
#X obj 253 65 loadbang;
#X obj 482 584 r pressed;
#X obj 389 604 spigot 0;
#X obj 549 405 r pressed;
#X obj 549 456 == 1;
#X obj 549 430 change 0;
#X obj 253 34 v stringnote;
#X text 240 11 initialize values;
#X obj 268 447 s stringnote;
#X obj 389 574 v stringnote;
#X obj 284 490 s play_sound;
#X obj 389 547 r play_sound;
#X obj 557 480 bng 15 250 50 0 empty empty empty 17 7 0 10 -262144
-1 -1;
#X obj 547 503 s play_sound;
#X obj 284 469 delay 5;
#X text 379 527 play current sound;
#X obj 373 447 s string;
#X obj 612 129 s compassRange;
#X obj 839 29 r compassRange;
#X floatatom 839 51 5 0 0 0 - - -;
#X obj 839 72 % 180;
#X obj 839 95 clip 15 165;
#X obj 839 117 - 15;
#X obj 839 139 / 75;
#X obj 839 161 - 1;
#X obj 839 183 s compass;
#X obj 404 873 dac~;
#X text 829 6 remap compass range;
#X msg 253 93 \; stringnote 8;
#X text 358 69 show current string image;
#X text 535 381 trigger sound once when clicked;
#X text 269 387 if string change \, while same press.;
#X text 269 372 and trigger extra sound;
#X text 269 357 send stringinfo \,;
#X text 20 872 load harp sounds;
#X text 365 488 after stringnote was updated;
#X text 365 478 bang play_sound \,;
#X connect 1 0 2 0;
#X connect 2 0 40 0;
#X connect 3 0 4 0;
#X connect 3 0 5 0;
#X connect 5 0 6 0;
#X connect 5 0 29 0;
#X connect 5 1 14 0;
#X connect 14 0 7 0;
#X connect 14 0 30 0;
#X connect 14 1 15 0;
#X connect 15 0 8 0;
#X connect 15 0 31 0;
#X connect 15 1 16 0;
#X connect 16 0 9 0;
#X connect 16 0 32 0;
#X connect 16 1 17 0;
#X connect 17 0 10 0;
#X connect 17 0 33 0;
#X connect 17 1 18 0;
#X connect 18 0 11 0;
#X connect 18 0 34 0;
#X connect 18 1 19 0;
#X connect 19 0 12 0;
#X connect 19 0 35 0;
#X connect 19 1 13 0;
#X connect 19 1 36 0;
#X connect 20 0 21 0;
#X connect 21 0 25 0;
#X connect 22 0 24 0;
#X connect 23 0 110 0;
#X connect 25 0 23 0;
#X connect 25 1 22 0;
#X connect 28 0 76 0;
#X connect 29 0 92 0;
#X connect 30 0 92 0;
#X connect 31 0 92 0;
#X connect 32 0 92 0;
#X connect 33 0 92 0;
#X connect 34 0 92 0;
#X connect 35 0 92 0;
#X connect 36 0 92 0;
#X connect 37 0 83 0;
#X connect 37 1 84 0;
#X connect 37 2 82 0;
#X connect 37 3 85 0;
#X connect 37 4 86 0;
#X connect 37 5 87 0;
#X connect 37 6 88 0;
#X connect 37 7 89 0;
#X connect 40 0 38 0;
#X connect 41 0 0 0;
#X connect 42 0 0 0;
#X connect 43 0 0 0;
#X connect 45 0 46 0;
#X connect 46 0 44 0;
#X connect 49 0 62 0;
#X connect 51 0 64 0;
#X connect 53 0 66 0;
#X connect 55 0 68 0;
#X connect 57 0 70 0;
#X connect 59 0 72 0;
#X connect 61 0 74 0;
#X connect 62 0 48 0;
#X connect 64 0 50 0;
#X connect 66 0 52 0;
#X connect 68 0 54 0;
#X connect 70 0 56 0;
#X connect 72 0 58 0;
#X connect 74 0 60 0;
#X connect 76 0 41 0;
#X connect 76 1 42 0;
#X connect 76 2 43 0;
#X connect 76 3 77 0;
#X connect 76 4 78 0;
#X connect 76 5 79 0;
#X connect 76 6 80 0;
#X connect 76 7 81 0;
#X connect 77 0 0 0;
#X connect 78 0 0 0;
#X connect 79 0 0 0;
#X connect 80 0 0 0;
#X connect 81 0 0 0;
#X connect 82 0 90 0;
#X connect 83 0 90 0;
#X connect 84 0 90 0;
#X connect 85 0 90 0;
#X connect 86 0 90 0;
#X connect 87 0 90 0;
#X connect 88 0 90 0;
#X connect 89 0 91 0;
#X connect 90 0 119 0;
#X connect 90 0 119 1;
#X connect 91 0 90 0;
#X connect 92 0 101 0;
#X connect 92 0 107 0;
#X connect 92 0 109 0;
#X connect 93 0 121 0;
#X connect 94 0 95 1;
#X connect 95 0 37 0;
#X connect 96 0 98 0;
#X connect 97 0 105 0;
#X connect 98 0 97 0;
#X connect 102 0 95 0;
#X connect 104 0 102 0;
#X connect 105 0 106 0;
#X connect 107 0 103 0;
#X connect 111 0 112 0;
#X connect 112 0 113 0;
#X connect 113 0 114 0;
#X connect 114 0 115 0;
#X connect 115 0 116 0;
#X connect 116 0 117 0;
#X connect 117 0 118 0;
